<?xml version="1.0" encoding="UTF-8" standalone="no"?>
<!-- Created with Inkscape (http://www.inkscape.org/) -->

<svg
   xmlns:dc="http://purl.org/dc/elements/1.1/"
   xmlns:cc="http://creativecommons.org/ns#"
   xmlns:rdf="http://www.w3.org/1999/02/22-rdf-syntax-ns#"
   xmlns:svg="http://www.w3.org/2000/svg"
   xmlns="http://www.w3.org/2000/svg"
   xmlns:sodipodi="http://sodipodi.sourceforge.net/DTD/sodipodi-0.dtd"
   xmlns:inkscape="http://www.inkscape.org/namespaces/inkscape"
   version="1.1"
   id="svg8417"
   width="256"
   height="256"
   viewBox="0 0 256 256"
   sodipodi:docname="logout.svg"
   inkscape:version="0.92.1 r15371"
   inkscape:export-filename="C:\apps\active\django\todo_dj\todo\static\todo\nav\logout.png"
   inkscape:export-xdpi="300"
   inkscape:export-ydpi="300">
  <metadata
     id="metadata8423">
    <rdf:RDF>
      <cc:Work
         rdf:about="">
        <dc:format>image/svg+xml</dc:format>
        <dc:type
           rdf:resource="http://purl.org/dc/dcmitype/StillImage" />
        <dc:title></dc:title>
      </cc:Work>
    </rdf:RDF>
  </metadata>
  <defs
     id="defs8421" />
  <sodipodi:namedview
     pagecolor="#ffffff"
     bordercolor="#666666"
     borderopacity="1"
     objecttolerance="10"
     gridtolerance="10"
     guidetolerance="10"
     inkscape:pageopacity="0"
     inkscape:pageshadow="2"
     inkscape:window-width="2880"
     inkscape:window-height="1526"
     id="namedview8419"
     showgrid="false"
     inkscape:zoom="1.4494308"
     inkscape:cx="-213.57938"
     inkscape:cy="60.466426"
     inkscape:window-x="-11"
     inkscape:window-y="-11"
     inkscape:window-maximized="1"
     inkscape:current-layer="svg8417"
     showguides="false" />
  <path
     style="opacity:1;fill:#ca0000;fill-opacity:1;stroke:none;stroke-width:4.35891676;stroke-miterlimit:4;stroke-dasharray:none;stroke-opacity:1"
     d="m 236.89649,-0.24414062 c 10.54051,0 19.02734,8.48682742 19.02734,19.02734362 V 236.73047 c 0,10.54052 -8.48683,19.02539 -19.02734,19.02539 H 18.949219 c -10.5405196,0 -19.02538962,-8.48487 -19.02538962,-19.02539 V 167.73633 L 18.705079,178.57812 v 42.16211 c 0,8.99384 7.24054,16.23438 16.23438,16.23438 H 220.90625 c 8.99384,0 16.23438,-7.24054 16.23438,-16.23438 V 34.773438 c 0,-8.993839 -7.24054,-16.234376 -16.23438,-16.234376 H 34.939459 c -8.99384,0 -16.23438,7.240536 -16.23438,16.234376 V 76.933594 L -0.07617062,87.775391 V 18.783203 c 0,-10.5405162 8.48487002,-19.02734362 19.02538962,-19.02734362 z M 107.93164,65.300781 v 34.648438 h 92.84571 V 155.5625 h -92.84571 v 34.64844 L -0.24414062,127.75586 Z"
     id="rect8468"
     inkscape:connector-curvature="0" />
</svg>
